<?xml version="1.0" encoding="utf-8" standalone="no"?>
<!DOCTYPE svg PUBLIC "-//W3C//DTD SVG 1.1//EN"
  "http://www.w3.org/Graphics/SVG/1.1/DTD/svg11.dtd">
<svg xmlns:xlink="http://www.w3.org/1999/xlink" width="504pt" height="360pt" viewBox="0 0 504 360" xmlns="http://www.w3.org/2000/svg" version="1.1">
 <metadata>
  <rdf:RDF xmlns:dc="http://purl.org/dc/elements/1.1/" xmlns:cc="http://creativecommons.org/ns#" xmlns:rdf="http://www.w3.org/1999/02/22-rdf-syntax-ns#">
   <cc:Work>
    <dc:type rdf:resource="http://purl.org/dc/dcmitype/StillImage"/>
    <dc:date>2025-09-24T11:05:05.926067</dc:date>
    <dc:format>image/svg+xml</dc:format>
    <dc:creator>
     <cc:Agent>
      <dc:title>Matplotlib v3.10.6, https://matplotlib.org/</dc:title>
     </cc:Agent>
    </dc:creator>
   </cc:Work>
  </rdf:RDF>
 </metadata>
 <defs>
  <style type="text/css">*{stroke-linejoin: round; stroke-linecap: butt}</style>
 </defs>
 <g id="figure_1">
  <g id="patch_1">
   <path d="M 0 360 
L 504 360 
L 504 0 
L 0 0 
z
" style="fill: #ffffff"/>
  </g>
  <g id="axes_1">
   <g id="patch_2">
    <path d="M 40 93.513333 
L 484.56 93.513333 
L 484.56 19.44 
L 40 19.44 
z
" style="fill: #ffffff"/>
   </g>
   <g id="matplotlib.axis_1">
    <g id="xtick_1"/>
    <g id="xtick_2"/>
    <g id="xtick_3"/>
    <g id="xtick_4"/>
    <g id="xtick_5"/>
    <g id="xtick_6"/>
    <g id="xtick_7"/>
    <g id="xtick_8"/>
    <g id="xtick_9"/>
    <g id="xtick_10"/>
   </g>
   <g id="matplotlib.axis_2">
    <g id="text_1">
     <!-- Sequential -->
     <g style="fill: #262626" transform="translate(32.4225 99.008698) rotate(-90) scale(0.18 -0.18)">
      <defs>
       <path id="ArialMT-53" d="M 288 1472 
L 859 1522 
Q 900 1178 1048 958 
Q 1197 738 1509 602 
Q 1822 466 2213 466 
Q 2559 466 2825 569 
Q 3091 672 3220 851 
Q 3350 1031 3350 1244 
Q 3350 1459 3225 1620 
Q 3100 1781 2813 1891 
Q 2628 1963 1997 2114 
Q 1366 2266 1113 2400 
Q 784 2572 623 2826 
Q 463 3081 463 3397 
Q 463 3744 659 4045 
Q 856 4347 1234 4503 
Q 1613 4659 2075 4659 
Q 2584 4659 2973 4495 
Q 3363 4331 3572 4012 
Q 3781 3694 3797 3291 
L 3216 3247 
Q 3169 3681 2898 3903 
Q 2628 4125 2100 4125 
Q 1550 4125 1298 3923 
Q 1047 3722 1047 3438 
Q 1047 3191 1225 3031 
Q 1400 2872 2139 2705 
Q 2878 2538 3153 2413 
Q 3553 2228 3743 1945 
Q 3934 1663 3934 1294 
Q 3934 928 3725 604 
Q 3516 281 3123 101 
Q 2731 -78 2241 -78 
Q 1619 -78 1198 103 
Q 778 284 539 648 
Q 300 1013 288 1472 
z
" transform="scale(0.015625)"/>
       <path id="ArialMT-65" d="M 2694 1069 
L 3275 997 
Q 3138 488 2766 206 
Q 2394 -75 1816 -75 
Q 1088 -75 661 373 
Q 234 822 234 1631 
Q 234 2469 665 2931 
Q 1097 3394 1784 3394 
Q 2450 3394 2872 2941 
Q 3294 2488 3294 1666 
Q 3294 1616 3291 1516 
L 816 1516 
Q 847 969 1125 678 
Q 1403 388 1819 388 
Q 2128 388 2347 550 
Q 2566 713 2694 1069 
z
M 847 1978 
L 2700 1978 
Q 2663 2397 2488 2606 
Q 2219 2931 1791 2931 
Q 1403 2931 1139 2672 
Q 875 2413 847 1978 
z
" transform="scale(0.015625)"/>
       <path id="ArialMT-71" d="M 2538 -1272 
L 2538 353 
Q 2406 169 2170 47 
Q 1934 -75 1669 -75 
Q 1078 -75 651 397 
Q 225 869 225 1691 
Q 225 2191 398 2587 
Q 572 2984 901 3189 
Q 1231 3394 1625 3394 
Q 2241 3394 2594 2875 
L 2594 3319 
L 3100 3319 
L 3100 -1272 
L 2538 -1272 
z
M 803 1669 
Q 803 1028 1072 708 
Q 1341 388 1716 388 
Q 2075 388 2334 692 
Q 2594 997 2594 1619 
Q 2594 2281 2320 2615 
Q 2047 2950 1678 2950 
Q 1313 2950 1058 2639 
Q 803 2328 803 1669 
z
" transform="scale(0.015625)"/>
       <path id="ArialMT-75" d="M 2597 0 
L 2597 488 
Q 2209 -75 1544 -75 
Q 1250 -75 995 37 
Q 741 150 617 320 
Q 494 491 444 738 
Q 409 903 409 1263 
L 409 3319 
L 972 3319 
L 972 1478 
Q 972 1038 1006 884 
Q 1059 663 1231 536 
Q 1403 409 1656 409 
Q 1909 409 2131 539 
Q 2353 669 2445 892 
Q 2538 1116 2538 1541 
L 2538 3319 
L 3100 3319 
L 3100 0 
L 2597 0 
z
" transform="scale(0.015625)"/>
       <path id="ArialMT-6e" d="M 422 0 
L 422 3319 
L 928 3319 
L 928 2847 
Q 1294 3394 1984 3394 
Q 2284 3394 2536 3286 
Q 2788 3178 2913 3003 
Q 3038 2828 3088 2588 
Q 3119 2431 3119 2041 
L 3119 0 
L 2556 0 
L 2556 2019 
Q 2556 2363 2490 2533 
Q 2425 2703 2258 2804 
Q 2091 2906 1866 2906 
Q 1506 2906 1245 2678 
Q 984 2450 984 1813 
L 984 0 
L 422 0 
z
" transform="scale(0.015625)"/>
       <path id="ArialMT-74" d="M 1650 503 
L 1731 6 
Q 1494 -44 1306 -44 
Q 1000 -44 831 53 
Q 663 150 594 308 
Q 525 466 525 972 
L 525 2881 
L 113 2881 
L 113 3319 
L 525 3319 
L 525 4141 
L 1084 4478 
L 1084 3319 
L 1650 3319 
L 1650 2881 
L 1084 2881 
L 1084 941 
Q 1084 700 1114 631 
Q 1144 563 1211 522 
Q 1278 481 1403 481 
Q 1497 481 1650 503 
z
" transform="scale(0.015625)"/>
       <path id="ArialMT-69" d="M 425 3934 
L 425 4581 
L 988 4581 
L 988 3934 
L 425 3934 
z
M 425 0 
L 425 3319 
L 988 3319 
L 988 0 
L 425 0 
z
" transform="scale(0.015625)"/>
       <path id="ArialMT-61" d="M 2588 409 
Q 2275 144 1986 34 
Q 1697 -75 1366 -75 
Q 819 -75 525 192 
Q 231 459 231 875 
Q 231 1119 342 1320 
Q 453 1522 633 1644 
Q 813 1766 1038 1828 
Q 1203 1872 1538 1913 
Q 2219 1994 2541 2106 
Q 2544 2222 2544 2253 
Q 2544 2597 2384 2738 
Q 2169 2928 1744 2928 
Q 1347 2928 1158 2789 
Q 969 2650 878 2297 
L 328 2372 
Q 403 2725 575 2942 
Q 747 3159 1072 3276 
Q 1397 3394 1825 3394 
Q 2250 3394 2515 3294 
Q 2781 3194 2906 3042 
Q 3031 2891 3081 2659 
Q 3109 2516 3109 2141 
L 3109 1391 
Q 3109 606 3145 398 
Q 3181 191 3288 0 
L 2700 0 
Q 2613 175 2588 409 
z
M 2541 1666 
Q 2234 1541 1622 1453 
Q 1275 1403 1131 1340 
Q 988 1278 909 1158 
Q 831 1038 831 891 
Q 831 666 1001 516 
Q 1172 366 1500 366 
Q 1825 366 2078 508 
Q 2331 650 2450 897 
Q 2541 1088 2541 1459 
L 2541 1666 
z
" transform="scale(0.015625)"/>
       <path id="ArialMT-6c" d="M 409 0 
L 409 4581 
L 972 4581 
L 972 0 
L 409 0 
z
" transform="scale(0.015625)"/>
      </defs>
      <use xlink:href="#ArialMT-53"/>
      <use xlink:href="#ArialMT-65" transform="translate(66.699219 0)"/>
      <use xlink:href="#ArialMT-71" transform="translate(122.314453 0)"/>
      <use xlink:href="#ArialMT-75" transform="translate(177.929688 0)"/>
      <use xlink:href="#ArialMT-65" transform="translate(233.544922 0)"/>
      <use xlink:href="#ArialMT-6e" transform="translate(289.160156 0)"/>
      <use xlink:href="#ArialMT-74" transform="translate(344.775391 0)"/>
      <use xlink:href="#ArialMT-69" transform="translate(372.558594 0)"/>
      <use xlink:href="#ArialMT-61" transform="translate(394.775391 0)"/>
      <use xlink:href="#ArialMT-6c" transform="translate(450.390625 0)"/>
     </g>
    </g>
   </g>
   <g id="patch_3">
    <path d="M 44.4456 93.513333 
L 80.0104 93.513333 
L 80.0104 86.45873 
L 44.4456 86.45873 
z
" clip-path="url(#p52fa14086c)" style="fill: #22172d; stroke: #ffffff; stroke-width: 1.5; stroke-linejoin: miter"/>
   </g>
   <g id="patch_4">
    <path d="M 88.9016 93.513333 
L 124.4664 93.513333 
L 124.4664 79.404127 
L 88.9016 79.404127 
z
" clip-path="url(#p52fa14086c)" style="fill: #402141; stroke: #ffffff; stroke-width: 1.5; stroke-linejoin: miter"/>
   </g>
   <g id="patch_5">
    <path d="M 133.3576 93.513333 
L 168.9224 93.513333 
L 168.9224 72.349524 
L 133.3576 72.349524 
z
" clip-path="url(#p52fa14086c)" style="fill: #602851; stroke: #ffffff; stroke-width: 1.5; stroke-linejoin: miter"/>
   </g>
   <g id="patch_6">
    <path d="M 177.8136 93.513333 
L 213.3784 93.513333 
L 213.3784 65.294921 
L 177.8136 65.294921 
z
" clip-path="url(#p52fa14086c)" style="fill: #832b5a; stroke: #ffffff; stroke-width: 1.5; stroke-linejoin: miter"/>
   </g>
   <g id="patch_7">
    <path d="M 222.2696 93.513333 
L 257.8344 93.513333 
L 257.8344 58.240317 
L 222.2696 58.240317 
z
" clip-path="url(#p52fa14086c)" style="fill: #a42a5b; stroke: #ffffff; stroke-width: 1.5; stroke-linejoin: miter"/>
   </g>
   <g id="patch_8">
    <path d="M 266.7256 93.513333 
L 302.2904 93.513333 
L 302.2904 51.185714 
L 266.7256 51.185714 
z
" clip-path="url(#p52fa14086c)" style="fill: #c33e56; stroke: #ffffff; stroke-width: 1.5; stroke-linejoin: miter"/>
   </g>
   <g id="patch_9">
    <path d="M 311.1816 93.513333 
L 346.7464 93.513333 
L 346.7464 44.131111 
L 311.1816 44.131111 
z
" clip-path="url(#p52fa14086c)" style="fill: #d76154; stroke: #ffffff; stroke-width: 1.5; stroke-linejoin: miter"/>
   </g>
   <g id="patch_10">
    <path d="M 355.6376 93.513333 
L 391.2024 93.513333 
L 391.2024 37.076508 
L 355.6376 37.076508 
z
" clip-path="url(#p52fa14086c)" style="fill: #e0876a; stroke: #ffffff; stroke-width: 1.5; stroke-linejoin: miter"/>
   </g>
   <g id="patch_11">
    <path d="M 400.0936 93.513333 
L 435.6584 93.513333 
L 435.6584 30.021905 
L 400.0936 30.021905 
z
" clip-path="url(#p52fa14086c)" style="fill: #e7aa8b; stroke: #ffffff; stroke-width: 1.5; stroke-linejoin: miter"/>
   </g>
   <g id="patch_12">
    <path d="M 444.5496 93.513333 
L 480.1144 93.513333 
L 480.1144 22.967302 
L 444.5496 22.967302 
z
" clip-path="url(#p52fa14086c)" style="fill: #edcbb4; stroke: #ffffff; stroke-width: 1.5; stroke-linejoin: miter"/>
   </g>
   <g id="line2d_1">
    <path clip-path="url(#p52fa14086c)" style="fill: none; stroke: #424242; stroke-width: 3.375; stroke-linecap: round"/>
   </g>
   <g id="line2d_2">
    <path clip-path="url(#p52fa14086c)" style="fill: none; stroke: #424242; stroke-width: 3.375; stroke-linecap: round"/>
   </g>
   <g id="line2d_3">
    <path clip-path="url(#p52fa14086c)" style="fill: none; stroke: #424242; stroke-width: 3.375; stroke-linecap: round"/>
   </g>
   <g id="line2d_4">
    <path clip-path="url(#p52fa14086c)" style="fill: none; stroke: #424242; stroke-width: 3.375; stroke-linecap: round"/>
   </g>
   <g id="line2d_5">
    <path clip-path="url(#p52fa14086c)" style="fill: none; stroke: #424242; stroke-width: 3.375; stroke-linecap: round"/>
   </g>
   <g id="line2d_6">
    <path clip-path="url(#p52fa14086c)" style="fill: none; stroke: #424242; stroke-width: 3.375; stroke-linecap: round"/>
   </g>
   <g id="line2d_7">
    <path clip-path="url(#p52fa14086c)" style="fill: none; stroke: #424242; stroke-width: 3.375; stroke-linecap: round"/>
   </g>
   <g id="line2d_8">
    <path clip-path="url(#p52fa14086c)" style="fill: none; stroke: #424242; stroke-width: 3.375; stroke-linecap: round"/>
   </g>
   <g id="line2d_9">
    <path clip-path="url(#p52fa14086c)" style="fill: none; stroke: #424242; stroke-width: 3.375; stroke-linecap: round"/>
   </g>
   <g id="line2d_10">
    <path clip-path="url(#p52fa14086c)" style="fill: none; stroke: #424242; stroke-width: 3.375; stroke-linecap: round"/>
   </g>
   <g id="line2d_11">
    <path d="M 40 93.513333 
L 484.56 93.513333 
" style="fill: none; stroke: #1a1a1a; stroke-width: 2.25; stroke-linecap: round"/>
   </g>
   <g id="patch_13">
    <path d="M 40 93.513333 
L 40 19.44 
" style="fill: none; stroke: #262626; stroke-width: 1.875; stroke-linejoin: miter; stroke-linecap: square"/>
   </g>
  </g>
  <g id="axes_2">
   <g id="patch_14">
    <path d="M 40 203.586667 
L 484.56 203.586667 
L 484.56 129.513333 
L 40 129.513333 
z
" style="fill: #ffffff"/>
   </g>
   <g id="matplotlib.axis_3">
    <g id="xtick_11"/>
    <g id="xtick_12"/>
    <g id="xtick_13"/>
    <g id="xtick_14"/>
    <g id="xtick_15"/>
    <g id="xtick_16"/>
    <g id="xtick_17"/>
    <g id="xtick_18"/>
    <g id="xtick_19"/>
    <g id="xtick_20"/>
   </g>
   <g id="matplotlib.axis_4">
    <g id="text_2">
     <!-- Diverging -->
     <g style="fill: #262626" transform="translate(32.211562 204.565156) rotate(-90) scale(0.18 -0.18)">
      <defs>
       <path id="ArialMT-44" d="M 494 0 
L 494 4581 
L 2072 4581 
Q 2606 4581 2888 4516 
Q 3281 4425 3559 4188 
Q 3922 3881 4101 3404 
Q 4281 2928 4281 2316 
Q 4281 1794 4159 1391 
Q 4038 988 3847 723 
Q 3656 459 3429 307 
Q 3203 156 2883 78 
Q 2563 0 2147 0 
L 494 0 
z
M 1100 541 
L 2078 541 
Q 2531 541 2789 625 
Q 3047 709 3200 863 
Q 3416 1078 3536 1442 
Q 3656 1806 3656 2325 
Q 3656 3044 3420 3430 
Q 3184 3816 2847 3947 
Q 2603 4041 2063 4041 
L 1100 4041 
L 1100 541 
z
" transform="scale(0.015625)"/>
       <path id="ArialMT-76" d="M 1344 0 
L 81 3319 
L 675 3319 
L 1388 1331 
Q 1503 1009 1600 663 
Q 1675 925 1809 1294 
L 2547 3319 
L 3125 3319 
L 1869 0 
L 1344 0 
z
" transform="scale(0.015625)"/>
       <path id="ArialMT-72" d="M 416 0 
L 416 3319 
L 922 3319 
L 922 2816 
Q 1116 3169 1280 3281 
Q 1444 3394 1641 3394 
Q 1925 3394 2219 3213 
L 2025 2691 
Q 1819 2813 1613 2813 
Q 1428 2813 1281 2702 
Q 1134 2591 1072 2394 
Q 978 2094 978 1738 
L 978 0 
L 416 0 
z
" transform="scale(0.015625)"/>
       <path id="ArialMT-67" d="M 319 -275 
L 866 -356 
Q 900 -609 1056 -725 
Q 1266 -881 1628 -881 
Q 2019 -881 2231 -725 
Q 2444 -569 2519 -288 
Q 2563 -116 2559 434 
Q 2191 0 1641 0 
Q 956 0 581 494 
Q 206 988 206 1678 
Q 206 2153 378 2554 
Q 550 2956 876 3175 
Q 1203 3394 1644 3394 
Q 2231 3394 2613 2919 
L 2613 3319 
L 3131 3319 
L 3131 450 
Q 3131 -325 2973 -648 
Q 2816 -972 2473 -1159 
Q 2131 -1347 1631 -1347 
Q 1038 -1347 672 -1080 
Q 306 -813 319 -275 
z
M 784 1719 
Q 784 1066 1043 766 
Q 1303 466 1694 466 
Q 2081 466 2343 764 
Q 2606 1063 2606 1700 
Q 2606 2309 2336 2618 
Q 2066 2928 1684 2928 
Q 1309 2928 1046 2623 
Q 784 2319 784 1719 
z
" transform="scale(0.015625)"/>
      </defs>
      <use xlink:href="#ArialMT-44"/>
      <use xlink:href="#ArialMT-69" transform="translate(72.216797 0)"/>
      <use xlink:href="#ArialMT-76" transform="translate(94.433594 0)"/>
      <use xlink:href="#ArialMT-65" transform="translate(144.433594 0)"/>
      <use xlink:href="#ArialMT-72" transform="translate(200.048828 0)"/>
      <use xlink:href="#ArialMT-67" transform="translate(233.349609 0)"/>
      <use xlink:href="#ArialMT-69" transform="translate(288.964844 0)"/>
      <use xlink:href="#ArialMT-6e" transform="translate(311.181641 0)"/>
      <use xlink:href="#ArialMT-67" transform="translate(366.796875 0)"/>
     </g>
    </g>
   </g>
   <g id="patch_15">
    <path d="M 44.4456 166.55 
L 80.0104 166.55 
L 80.0104 200.219697 
L 44.4456 200.219697 
z
" clip-path="url(#pacc2ea0a21)" style="fill: #6484b0; stroke: #ffffff; stroke-width: 1.5; stroke-linejoin: miter"/>
   </g>
   <g id="patch_16">
    <path d="M 88.9016 166.55 
L 124.4664 166.55 
L 124.4664 192.737542 
L 88.9016 192.737542 
z
" clip-path="url(#pacc2ea0a21)" style="fill: #879cba; stroke: #ffffff; stroke-width: 1.5; stroke-linejoin: miter"/>
   </g>
   <g id="patch_17">
    <path d="M 133.3576 166.55 
L 168.9224 166.55 
L 168.9224 185.255387 
L 133.3576 185.255387 
z
" clip-path="url(#pacc2ea0a21)" style="fill: #a9b5c8; stroke: #ffffff; stroke-width: 1.5; stroke-linejoin: miter"/>
   </g>
   <g id="patch_18">
    <path d="M 177.8136 166.55 
L 213.3784 166.55 
L 213.3784 177.773232 
L 177.8136 177.773232 
z
" clip-path="url(#pacc2ea0a21)" style="fill: #ccd1db; stroke: #ffffff; stroke-width: 1.5; stroke-linejoin: miter"/>
   </g>
   <g id="patch_19">
    <path d="M 222.2696 166.55 
L 257.8344 166.55 
L 257.8344 170.291077 
L 222.2696 170.291077 
z
" clip-path="url(#pacc2ea0a21)" style="fill: #efeef0; stroke: #ffffff; stroke-width: 1.5; stroke-linejoin: miter"/>
   </g>
   <g id="patch_20">
    <path d="M 266.7256 166.55 
L 302.2904 166.55 
L 302.2904 162.808923 
L 266.7256 162.808923 
z
" clip-path="url(#pacc2ea0a21)" style="fill: #f5ebea; stroke: #ffffff; stroke-width: 1.5; stroke-linejoin: miter"/>
   </g>
   <g id="patch_21">
    <path d="M 311.1816 166.55 
L 346.7464 166.55 
L 346.7464 155.326768 
L 311.1816 155.326768 
z
" clip-path="url(#pacc2ea0a21)" style="fill: #e2c9c7; stroke: #ffffff; stroke-width: 1.5; stroke-linejoin: miter"/>
   </g>
   <g id="patch_22">
    <path d="M 355.6376 166.55 
L 391.2024 166.55 
L 391.2024 147.844613 
L 355.6376 147.844613 
z
" clip-path="url(#pacc2ea0a21)" style="fill: #d0a7a5; stroke: #ffffff; stroke-width: 1.5; stroke-linejoin: miter"/>
   </g>
   <g id="patch_23">
    <path d="M 400.0936 166.55 
L 435.6584 166.55 
L 435.6584 140.362458 
L 400.0936 140.362458 
z
" clip-path="url(#pacc2ea0a21)" style="fill: #bf8785; stroke: #ffffff; stroke-width: 1.5; stroke-linejoin: miter"/>
   </g>
   <g id="patch_24">
    <path d="M 444.5496 166.55 
L 480.1144 166.55 
L 480.1144 132.880303 
L 444.5496 132.880303 
z
" clip-path="url(#pacc2ea0a21)" style="fill: #ae6766; stroke: #ffffff; stroke-width: 1.5; stroke-linejoin: miter"/>
   </g>
   <g id="line2d_12">
    <path clip-path="url(#pacc2ea0a21)" style="fill: none; stroke: #424242; stroke-width: 3.375; stroke-linecap: round"/>
   </g>
   <g id="line2d_13">
    <path clip-path="url(#pacc2ea0a21)" style="fill: none; stroke: #424242; stroke-width: 3.375; stroke-linecap: round"/>
   </g>
   <g id="line2d_14">
    <path clip-path="url(#pacc2ea0a21)" style="fill: none; stroke: #424242; stroke-width: 3.375; stroke-linecap: round"/>
   </g>
   <g id="line2d_15">
    <path clip-path="url(#pacc2ea0a21)" style="fill: none; stroke: #424242; stroke-width: 3.375; stroke-linecap: round"/>
   </g>
   <g id="line2d_16">
    <path clip-path="url(#pacc2ea0a21)" style="fill: none; stroke: #424242; stroke-width: 3.375; stroke-linecap: round"/>
   </g>
   <g id="line2d_17">
    <path clip-path="url(#pacc2ea0a21)" style="fill: none; stroke: #424242; stroke-width: 3.375; stroke-linecap: round"/>
   </g>
   <g id="line2d_18">
    <path clip-path="url(#pacc2ea0a21)" style="fill: none; stroke: #424242; stroke-width: 3.375; stroke-linecap: round"/>
   </g>
   <g id="line2d_19">
    <path clip-path="url(#pacc2ea0a21)" style="fill: none; stroke: #424242; stroke-width: 3.375; stroke-linecap: round"/>
   </g>
   <g id="line2d_20">
    <path clip-path="url(#pacc2ea0a21)" style="fill: none; stroke: #424242; stroke-width: 3.375; stroke-linecap: round"/>
   </g>
   <g id="line2d_21">
    <path clip-path="url(#pacc2ea0a21)" style="fill: none; stroke: #424242; stroke-width: 3.375; stroke-linecap: round"/>
   </g>
   <g id="line2d_22">
    <path d="M 40 166.55 
L 484.56 166.55 
" style="fill: none; stroke: #1a1a1a; stroke-width: 2.25; stroke-linecap: round"/>
   </g>
   <g id="patch_25">
    <path d="M 40 203.586667 
L 40 129.513333 
" style="fill: none; stroke: #262626; stroke-width: 1.875; stroke-linejoin: miter; stroke-linecap: square"/>
   </g>
  </g>
  <g id="axes_3">
   <g id="patch_26">
    <path d="M 40 313.66 
L 484.56 313.66 
L 484.56 239.586667 
L 40 239.586667 
z
" style="fill: #ffffff"/>
   </g>
   <g id="matplotlib.axis_5">
    <g id="xtick_21">
     <g id="text_3">
      <!-- A -->
      <g style="fill: #262626" transform="translate(56.724992 337.970391) scale(0.165 -0.165)">
       <defs>
        <path id="ArialMT-41" d="M -9 0 
L 1750 4581 
L 2403 4581 
L 4278 0 
L 3588 0 
L 3053 1388 
L 1138 1388 
L 634 0 
L -9 0 
z
M 1313 1881 
L 2866 1881 
L 2388 3150 
Q 2169 3728 2063 4100 
Q 1975 3659 1816 3225 
L 1313 1881 
z
" transform="scale(0.015625)"/>
       </defs>
       <use xlink:href="#ArialMT-41"/>
      </g>
     </g>
    </g>
    <g id="xtick_22">
     <g id="text_4">
      <!-- B -->
      <g style="fill: #262626" transform="translate(101.180992 337.970391) scale(0.165 -0.165)">
       <defs>
        <path id="ArialMT-42" d="M 469 0 
L 469 4581 
L 2188 4581 
Q 2713 4581 3030 4442 
Q 3347 4303 3526 4014 
Q 3706 3725 3706 3409 
Q 3706 3116 3547 2856 
Q 3388 2597 3066 2438 
Q 3481 2316 3704 2022 
Q 3928 1728 3928 1328 
Q 3928 1006 3792 729 
Q 3656 453 3456 303 
Q 3256 153 2954 76 
Q 2653 0 2216 0 
L 469 0 
z
M 1075 2656 
L 2066 2656 
Q 2469 2656 2644 2709 
Q 2875 2778 2992 2937 
Q 3109 3097 3109 3338 
Q 3109 3566 3000 3739 
Q 2891 3913 2687 3977 
Q 2484 4041 1991 4041 
L 1075 4041 
L 1075 2656 
z
M 1075 541 
L 2216 541 
Q 2509 541 2628 563 
Q 2838 600 2978 687 
Q 3119 775 3209 942 
Q 3300 1109 3300 1328 
Q 3300 1584 3169 1773 
Q 3038 1963 2805 2039 
Q 2572 2116 2134 2116 
L 1075 2116 
L 1075 541 
z
" transform="scale(0.015625)"/>
       </defs>
       <use xlink:href="#ArialMT-42"/>
      </g>
     </g>
    </g>
    <g id="xtick_23">
     <g id="text_5">
      <!-- C -->
      <g style="fill: #262626" transform="translate(145.181953 337.970391) scale(0.165 -0.165)">
       <defs>
        <path id="ArialMT-43" d="M 3763 1606 
L 4369 1453 
Q 4178 706 3683 314 
Q 3188 -78 2472 -78 
Q 1731 -78 1267 223 
Q 803 525 561 1097 
Q 319 1669 319 2325 
Q 319 3041 592 3573 
Q 866 4106 1370 4382 
Q 1875 4659 2481 4659 
Q 3169 4659 3637 4309 
Q 4106 3959 4291 3325 
L 3694 3184 
Q 3534 3684 3231 3912 
Q 2928 4141 2469 4141 
Q 1941 4141 1586 3887 
Q 1231 3634 1087 3207 
Q 944 2781 944 2328 
Q 944 1744 1114 1308 
Q 1284 872 1643 656 
Q 2003 441 2422 441 
Q 2931 441 3284 734 
Q 3638 1028 3763 1606 
z
" transform="scale(0.015625)"/>
       </defs>
       <use xlink:href="#ArialMT-43"/>
      </g>
     </g>
    </g>
    <g id="xtick_24">
     <g id="text_6">
      <!-- D -->
      <g style="fill: #262626" transform="translate(189.637953 337.970391) scale(0.165 -0.165)">
       <use xlink:href="#ArialMT-44"/>
      </g>
     </g>
    </g>
    <g id="xtick_25">
     <g id="text_7">
      <!-- E -->
      <g style="fill: #262626" transform="translate(234.548992 337.970391) scale(0.165 -0.165)">
       <defs>
        <path id="ArialMT-45" d="M 506 0 
L 506 4581 
L 3819 4581 
L 3819 4041 
L 1113 4041 
L 1113 2638 
L 3647 2638 
L 3647 2100 
L 1113 2100 
L 1113 541 
L 3925 541 
L 3925 0 
L 506 0 
z
" transform="scale(0.015625)"/>
       </defs>
       <use xlink:href="#ArialMT-45"/>
      </g>
     </g>
    </g>
    <g id="xtick_26">
     <g id="text_8">
      <!-- F -->
      <g style="fill: #262626" transform="translate(279.469055 337.970391) scale(0.165 -0.165)">
       <defs>
        <path id="ArialMT-46" d="M 525 0 
L 525 4581 
L 3616 4581 
L 3616 4041 
L 1131 4041 
L 1131 2622 
L 3281 2622 
L 3281 2081 
L 1131 2081 
L 1131 0 
L 525 0 
z
" transform="scale(0.015625)"/>
       </defs>
       <use xlink:href="#ArialMT-46"/>
      </g>
     </g>
    </g>
    <g id="xtick_27">
     <g id="text_9">
      <!-- G -->
      <g style="fill: #262626" transform="translate(322.547047 337.970391) scale(0.165 -0.165)">
       <defs>
        <path id="ArialMT-47" d="M 2638 1797 
L 2638 2334 
L 4578 2338 
L 4578 638 
Q 4131 281 3656 101 
Q 3181 -78 2681 -78 
Q 2006 -78 1454 211 
Q 903 500 622 1047 
Q 341 1594 341 2269 
Q 341 2938 620 3517 
Q 900 4097 1425 4378 
Q 1950 4659 2634 4659 
Q 3131 4659 3532 4498 
Q 3934 4338 4162 4050 
Q 4391 3763 4509 3300 
L 3963 3150 
Q 3859 3500 3706 3700 
Q 3553 3900 3268 4020 
Q 2984 4141 2638 4141 
Q 2222 4141 1919 4014 
Q 1616 3888 1430 3681 
Q 1244 3475 1141 3228 
Q 966 2803 966 2306 
Q 966 1694 1177 1281 
Q 1388 869 1791 669 
Q 2194 469 2647 469 
Q 3041 469 3416 620 
Q 3791 772 3984 944 
L 3984 1797 
L 2638 1797 
z
" transform="scale(0.015625)"/>
       </defs>
       <use xlink:href="#ArialMT-47"/>
      </g>
     </g>
    </g>
    <g id="xtick_28">
     <g id="text_10">
      <!-- H -->
      <g style="fill: #262626" transform="translate(367.461953 337.970391) scale(0.165 -0.165)">
       <defs>
        <path id="ArialMT-48" d="M 513 0 
L 513 4581 
L 1119 4581 
L 1119 2700 
L 3500 2700 
L 3500 4581 
L 4106 4581 
L 4106 0 
L 3500 0 
L 3500 2159 
L 1119 2159 
L 1119 0 
L 513 0 
z
" transform="scale(0.015625)"/>
       </defs>
       <use xlink:href="#ArialMT-48"/>
      </g>
     </g>
    </g>
    <g id="xtick_29">
     <g id="text_11">
      <!-- I -->
      <g style="fill: #262626" transform="translate(415.584047 337.970391) scale(0.165 -0.165)">
       <defs>
        <path id="ArialMT-49" d="M 597 0 
L 597 4581 
L 1203 4581 
L 1203 0 
L 597 0 
z
" transform="scale(0.015625)"/>
       </defs>
       <use xlink:href="#ArialMT-49"/>
      </g>
     </g>
    </g>
    <g id="xtick_30">
     <g id="text_12">
      <!-- J -->
      <g style="fill: #262626" transform="translate(458.207 337.970391) scale(0.165 -0.165)">
       <defs>
        <path id="ArialMT-4a" d="M 184 1300 
L 731 1375 
Q 753 850 928 656 
Q 1103 463 1413 463 
Q 1641 463 1806 567 
Q 1972 672 2034 851 
Q 2097 1031 2097 1425 
L 2097 4581 
L 2703 4581 
L 2703 1459 
Q 2703 884 2564 568 
Q 2425 253 2123 87 
Q 1822 -78 1416 -78 
Q 813 -78 492 269 
Q 172 616 184 1300 
z
" transform="scale(0.015625)"/>
       </defs>
       <use xlink:href="#ArialMT-4a"/>
      </g>
     </g>
    </g>
   </g>
   <g id="matplotlib.axis_6">
    <g id="text_13">
     <!-- Qualitative -->
     <g style="fill: #262626" transform="translate(32.4225 319.142708) rotate(-90) scale(0.18 -0.18)">
      <defs>
       <path id="ArialMT-51" d="M 3966 491 
Q 4388 200 4744 66 
L 4566 -356 
Q 4072 -178 3581 206 
Q 3072 -78 2456 -78 
Q 1834 -78 1328 222 
Q 822 522 548 1065 
Q 275 1609 275 2291 
Q 275 2969 550 3525 
Q 825 4081 1333 4372 
Q 1841 4663 2469 4663 
Q 3103 4663 3612 4361 
Q 4122 4059 4389 3517 
Q 4656 2975 4656 2294 
Q 4656 1728 4484 1276 
Q 4313 825 3966 491 
z
M 2631 1266 
Q 3156 1119 3497 828 
Q 4031 1316 4031 2294 
Q 4031 2850 3842 3265 
Q 3653 3681 3289 3911 
Q 2925 4141 2472 4141 
Q 1794 4141 1347 3677 
Q 900 3213 900 2291 
Q 900 1397 1342 919 
Q 1784 441 2472 441 
Q 2797 441 3084 563 
Q 2800 747 2484 825 
L 2631 1266 
z
" transform="scale(0.015625)"/>
      </defs>
      <use xlink:href="#ArialMT-51"/>
      <use xlink:href="#ArialMT-75" transform="translate(77.783203 0)"/>
      <use xlink:href="#ArialMT-61" transform="translate(133.398438 0)"/>
      <use xlink:href="#ArialMT-6c" transform="translate(189.013672 0)"/>
      <use xlink:href="#ArialMT-69" transform="translate(211.230469 0)"/>
      <use xlink:href="#ArialMT-74" transform="translate(233.447266 0)"/>
      <use xlink:href="#ArialMT-61" transform="translate(261.230469 0)"/>
      <use xlink:href="#ArialMT-74" transform="translate(316.845703 0)"/>
      <use xlink:href="#ArialMT-69" transform="translate(344.628906 0)"/>
      <use xlink:href="#ArialMT-76" transform="translate(366.845703 0)"/>
      <use xlink:href="#ArialMT-65" transform="translate(416.845703 0)"/>
     </g>
    </g>
   </g>
   <g id="patch_27">
    <path d="M 44.4456 313.66 
L 80.0104 313.66 
L 80.0104 250.168571 
L 44.4456 250.168571 
z
" clip-path="url(#pa2c7992cc6)" style="fill: #5875a4; stroke: #ffffff; stroke-width: 1.5; stroke-linejoin: miter"/>
   </g>
   <g id="patch_28">
    <path d="M 88.9016 313.66 
L 124.4664 313.66 
L 124.4664 264.277778 
L 88.9016 264.277778 
z
" clip-path="url(#pa2c7992cc6)" style="fill: #cc8963; stroke: #ffffff; stroke-width: 1.5; stroke-linejoin: miter"/>
   </g>
   <g id="patch_29">
    <path d="M 133.3576 313.66 
L 168.9224 313.66 
L 168.9224 243.113968 
L 133.3576 243.113968 
z
" clip-path="url(#pa2c7992cc6)" style="fill: #5f9e6e; stroke: #ffffff; stroke-width: 1.5; stroke-linejoin: miter"/>
   </g>
   <g id="patch_30">
    <path d="M 177.8136 313.66 
L 213.3784 313.66 
L 213.3784 306.605397 
L 177.8136 306.605397 
z
" clip-path="url(#pa2c7992cc6)" style="fill: #b55d60; stroke: #ffffff; stroke-width: 1.5; stroke-linejoin: miter"/>
   </g>
   <g id="patch_31">
    <path d="M 222.2696 313.66 
L 257.8344 313.66 
L 257.8344 292.49619 
L 222.2696 292.49619 
z
" clip-path="url(#pa2c7992cc6)" style="fill: #857aab; stroke: #ffffff; stroke-width: 1.5; stroke-linejoin: miter"/>
   </g>
   <g id="patch_32">
    <path d="M 266.7256 313.66 
L 302.2904 313.66 
L 302.2904 271.332381 
L 266.7256 271.332381 
z
" clip-path="url(#pa2c7992cc6)" style="fill: #8d7866; stroke: #ffffff; stroke-width: 1.5; stroke-linejoin: miter"/>
   </g>
   <g id="patch_33">
    <path d="M 311.1816 313.66 
L 346.7464 313.66 
L 346.7464 257.223175 
L 311.1816 257.223175 
z
" clip-path="url(#pa2c7992cc6)" style="fill: #d095bf; stroke: #ffffff; stroke-width: 1.5; stroke-linejoin: miter"/>
   </g>
   <g id="patch_34">
    <path d="M 355.6376 313.66 
L 391.2024 313.66 
L 391.2024 299.550794 
L 355.6376 299.550794 
z
" clip-path="url(#pa2c7992cc6)" style="fill: #8c8c8c; stroke: #ffffff; stroke-width: 1.5; stroke-linejoin: miter"/>
   </g>
   <g id="patch_35">
    <path d="M 400.0936 313.66 
L 435.6584 313.66 
L 435.6584 278.386984 
L 400.0936 278.386984 
z
" clip-path="url(#pa2c7992cc6)" style="fill: #c1b37f; stroke: #ffffff; stroke-width: 1.5; stroke-linejoin: miter"/>
   </g>
   <g id="patch_36">
    <path d="M 444.5496 313.66 
L 480.1144 313.66 
L 480.1144 285.441587 
L 444.5496 285.441587 
z
" clip-path="url(#pa2c7992cc6)" style="fill: #71aec0; stroke: #ffffff; stroke-width: 1.5; stroke-linejoin: miter"/>
   </g>
   <g id="line2d_23">
    <path clip-path="url(#pa2c7992cc6)" style="fill: none; stroke: #424242; stroke-width: 3.375; stroke-linecap: round"/>
   </g>
   <g id="line2d_24">
    <path clip-path="url(#pa2c7992cc6)" style="fill: none; stroke: #424242; stroke-width: 3.375; stroke-linecap: round"/>
   </g>
   <g id="line2d_25">
    <path clip-path="url(#pa2c7992cc6)" style="fill: none; stroke: #424242; stroke-width: 3.375; stroke-linecap: round"/>
   </g>
   <g id="line2d_26">
    <path clip-path="url(#pa2c7992cc6)" style="fill: none; stroke: #424242; stroke-width: 3.375; stroke-linecap: round"/>
   </g>
   <g id="line2d_27">
    <path clip-path="url(#pa2c7992cc6)" style="fill: none; stroke: #424242; stroke-width: 3.375; stroke-linecap: round"/>
   </g>
   <g id="line2d_28">
    <path clip-path="url(#pa2c7992cc6)" style="fill: none; stroke: #424242; stroke-width: 3.375; stroke-linecap: round"/>
   </g>
   <g id="line2d_29">
    <path clip-path="url(#pa2c7992cc6)" style="fill: none; stroke: #424242; stroke-width: 3.375; stroke-linecap: round"/>
   </g>
   <g id="line2d_30">
    <path clip-path="url(#pa2c7992cc6)" style="fill: none; stroke: #424242; stroke-width: 3.375; stroke-linecap: round"/>
   </g>
   <g id="line2d_31">
    <path clip-path="url(#pa2c7992cc6)" style="fill: none; stroke: #424242; stroke-width: 3.375; stroke-linecap: round"/>
   </g>
   <g id="line2d_32">
    <path clip-path="url(#pa2c7992cc6)" style="fill: none; stroke: #424242; stroke-width: 3.375; stroke-linecap: round"/>
   </g>
   <g id="line2d_33">
    <path d="M 40 313.66 
L 484.56 313.66 
" style="fill: none; stroke: #1a1a1a; stroke-width: 2.25; stroke-linecap: round"/>
   </g>
   <g id="patch_37">
    <path d="M 40 313.66 
L 40 239.586667 
" style="fill: none; stroke: #262626; stroke-width: 1.875; stroke-linejoin: miter; stroke-linecap: square"/>
   </g>
  </g>
 </g>
 <defs>
  <clipPath id="p52fa14086c">
   <rect x="40" y="19.44" width="444.56" height="74.073333"/>
  </clipPath>
  <clipPath id="pacc2ea0a21">
   <rect x="40" y="129.513333" width="444.56" height="74.073333"/>
  </clipPath>
  <clipPath id="pa2c7992cc6">
   <rect x="40" y="239.586667" width="444.56" height="74.073333"/>
  </clipPath>
 </defs>
</svg>
